<?xml version="1.0" encoding="UTF-8"?>
<svg xmlns="http://www.w3.org/2000/svg" xmlns:xlink="http://www.w3.org/1999/xlink" width="259px" height="25px" viewBox="0 0 257 25" version="1.1">
<g id="surface1">
<path style=" stroke:none;fill-rule:nonzero;fill:rgb(0%,0%,0%);fill-opacity:1;" d="M 16.183594 24.984375 L 12.621094 24.984375 L 12.621094 3.582031 L 0 3.582031 L 0 0.015625 L 28.804688 0.015625 L 28.804688 3.582031 L 16.183594 3.582031 Z M 50.265625 19.207031 C 50.265625 20.277344 49.945312 21.246094 49.304688 22.117188 C 48.660156 22.980469 47.800781 23.675781 46.722656 24.199219 C 45.640625 24.722656 44.445312 24.984375 43.136719 24.984375 L 27.808594 24.984375 L 27.808594 21.417969 L 43.136719 21.417969 C 44.109375 21.417969 44.949219 21.203125 45.652344 20.773438 C 46.351562 20.347656 46.703125 19.824219 46.703125 19.207031 L 46.703125 18.3125 L 34.902344 18.3125 C 33.59375 18.3125 32.40625 17.992188 31.335938 17.351562 C 30.265625 16.710938 29.410156 15.847656 28.769531 14.761719 C 28.128906 13.683594 27.808594 12.488281 27.808594 11.179688 L 27.808594 5.367188 L 31.335938 5.367188 L 31.335938 11.179688 C 31.335938 12.179688 31.6875 13.023438 32.390625 13.710938 C 33.089844 14.402344 33.925781 14.746094 34.902344 14.746094 L 46.703125 14.746094 L 46.703125 5.367188 L 50.265625 5.367188 Z M 77.644531 12.5 C 77.644531 13.785156 77.324219 14.972656 76.683594 16.066406 C 76.042969 17.160156 75.179688 18.035156 74.101562 18.683594 C 73.019531 19.339844 71.824219 19.667969 70.515625 19.667969 L 60.605469 19.667969 L 60.605469 16.136719 L 70.515625 16.136719 C 71.511719 16.136719 72.363281 15.773438 73.066406 15.046875 C 73.765625 14.324219 74.117188 13.476562 74.117188 12.5 C 74.117188 11.5 73.765625 10.648438 73.066406 9.945312 C 72.363281 9.246094 71.511719 8.898438 70.515625 8.898438 L 58.75 8.898438 L 58.75 24.984375 L 55.222656 24.984375 L 55.222656 5.367188 L 70.515625 5.367188 C 71.824219 5.367188 73.019531 5.6875 74.101562 6.328125 C 75.179688 6.972656 76.042969 7.832031 76.683594 8.910156 C 77.324219 9.996094 77.644531 11.191406 77.644531 12.5 Z M 101.386719 24.984375 L 80.925781 24.984375 L 80.925781 5.292969 L 101.386719 5.292969 L 101.386719 8.898438 L 84.527344 8.898438 L 84.527344 21.382812 L 101.386719 21.382812 L 101.386719 24.984375 M 99.105469 16.851562 L 86.203125 16.851562 L 86.203125 13.25 L 99.105469 13.25 Z M 110.40625 8.003906 C 110.40625 8.742188 110.144531 9.371094 109.625 9.894531 C 109.101562 10.417969 108.472656 10.679688 107.734375 10.679688 C 106.996094 10.679688 106.367188 10.417969 105.84375 9.894531 C 105.320312 9.371094 105.058594 8.742188 105.058594 8.003906 C 105.058594 7.269531 105.320312 6.636719 105.84375 6.113281 C 106.367188 5.59375 106.996094 5.332031 107.734375 5.332031 C 108.472656 5.332031 109.101562 5.59375 109.625 6.113281 C 110.144531 6.636719 110.40625 7.269531 110.40625 8.003906 M 110.40625 22.308594 C 110.40625 23.046875 110.144531 23.675781 109.625 24.199219 C 109.101562 24.722656 108.472656 24.984375 107.734375 24.984375 C 106.996094 24.984375 106.367188 24.722656 105.84375 24.199219 C 105.320312 23.675781 105.058594 23.046875 105.058594 22.308594 C 105.058594 21.570312 105.320312 20.941406 105.84375 20.417969 C 106.367188 19.894531 106.996094 19.632812 107.734375 19.632812 C 108.472656 19.632812 109.101562 19.894531 109.625 20.417969 C 110.144531 20.941406 110.40625 21.570312 110.40625 22.308594 Z M 130.871094 0.015625 L 117.75 24.984375 L 113.6875 24.984375 L 126.804688 0.015625 Z M 149.980469 0.015625 L 136.859375 24.984375 L 132.796875 24.984375 L 145.914062 0.015625 Z M 181.457031 17.851562 C 181.457031 19.160156 181.136719 20.351562 180.496094 21.433594 C 179.855469 22.515625 179 23.378906 177.929688 24.019531 C 176.859375 24.664062 175.660156 24.984375 174.328125 24.984375 L 152.652344 24.984375 L 152.652344 21.417969 L 174.328125 21.417969 C 175.324219 21.417969 176.167969 21.066406 176.859375 20.363281 C 177.546875 19.664062 177.894531 18.824219 177.894531 17.851562 C 177.894531 16.875 177.546875 16.039062 176.859375 15.339844 C 176.167969 14.636719 175.324219 14.285156 174.328125 14.285156 L 159.78125 14.285156 C 158.476562 14.285156 157.28125 13.960938 156.203125 13.320312 C 155.121094 12.679688 154.257812 11.816406 153.617188 10.730469 C 152.972656 9.652344 152.652344 8.457031 152.652344 7.148438 C 152.652344 5.839844 152.972656 4.644531 153.617188 3.5625 C 154.257812 2.480469 155.121094 1.621094 156.203125 0.980469 C 157.28125 0.335938 158.476562 0.015625 159.78125 0.015625 L 179.675781 0.015625 L 179.675781 3.582031 L 159.78125 3.582031 C 158.808594 3.582031 157.972656 3.933594 157.273438 4.632812 C 156.570312 5.335938 156.21875 6.175781 156.21875 7.148438 C 156.21875 8.125 156.570312 8.960938 157.273438 9.660156 C 157.972656 10.363281 158.808594 10.714844 159.78125 10.714844 L 174.328125 10.714844 C 175.660156 10.714844 176.859375 11.039062 177.929688 11.679688 C 179 12.320312 179.855469 13.183594 180.496094 14.269531 C 181.136719 15.347656 181.457031 16.542969 181.457031 17.851562 Z M 208.300781 15.140625 C 208.300781 16.945312 207.929688 18.59375 207.183594 20.078125 C 206.433594 21.566406 205.378906 22.753906 204.023438 23.644531 C 202.667969 24.539062 201.089844 24.984375 199.28125 24.984375 L 193.078125 24.984375 C 191.273438 24.984375 189.6875 24.539062 188.324219 23.644531 C 186.957031 22.753906 185.898438 21.566406 185.152344 20.078125 C 184.398438 18.59375 184.023438 16.945312 184.023438 15.140625 C 184.023438 13.332031 184.398438 11.691406 185.152344 10.21875 C 185.898438 8.742188 186.957031 7.566406 188.324219 6.6875 C 189.6875 5.804688 191.273438 5.367188 193.078125 5.367188 L 199.28125 5.367188 C 201.089844 5.367188 202.667969 5.804688 204.023438 6.6875 C 205.378906 7.566406 206.433594 8.742188 207.183594 10.21875 C 207.929688 11.691406 208.300781 13.332031 208.300781 15.140625 M 204.738281 15.140625 C 204.738281 14 204.523438 12.953125 204.09375 12 C 203.667969 11.050781 203.046875 10.292969 202.226562 9.730469 C 201.40625 9.175781 200.421875 8.898438 199.28125 8.898438 L 193.078125 8.898438 C 191.9375 8.898438 190.960938 9.175781 190.140625 9.730469 C 189.320312 10.292969 188.691406 11.050781 188.253906 12 C 187.8125 12.953125 187.589844 14 187.589844 15.140625 C 187.589844 16.28125 187.8125 17.328125 188.253906 18.277344 C 188.691406 19.230469 189.320312 19.992188 190.140625 20.5625 C 190.960938 21.132812 191.9375 21.417969 193.078125 21.417969 L 199.28125 21.417969 C 200.421875 21.417969 201.40625 21.132812 202.226562 20.5625 C 203.046875 19.992188 203.667969 19.230469 204.09375 18.277344 C 204.523438 17.328125 204.738281 16.28125 204.738281 15.140625 Z M 233.433594 5.367188 L 233.433594 15.175781 C 233.433594 16.53125 233.179688 17.804688 232.671875 18.992188 C 232.160156 20.179688 231.457031 21.222656 230.570312 22.117188 C 229.675781 23.007812 228.640625 23.703125 227.46875 24.214844 C 226.289062 24.726562 225.023438 24.984375 223.667969 24.984375 L 221.707031 24.984375 C 220.351562 24.984375 219.085938 24.726562 217.914062 24.214844 C 216.734375 23.703125 215.699219 23 214.8125 22.09375 C 213.917969 21.191406 213.21875 20.148438 212.707031 18.96875 C 212.195312 17.796875 211.9375 16.53125 211.9375 15.175781 L 211.9375 5.367188 L 215.503906 5.367188 L 215.503906 15.175781 C 215.503906 16.316406 215.785156 17.363281 216.34375 18.3125 C 216.902344 19.265625 217.648438 20.019531 218.589844 20.574219 C 219.527344 21.136719 220.566406 21.417969 221.707031 21.417969 L 223.667969 21.417969 C 224.832031 21.417969 225.878906 21.136719 226.804688 20.574219 C 227.730469 20.019531 228.476562 19.265625 229.035156 18.3125 C 229.59375 17.363281 229.871094 16.316406 229.871094 15.175781 L 229.871094 5.367188 Z M 257 24.984375 L 238.25 24.984375 L 238.25 5.367188 L 241.8125 5.367188 L 241.8125 21.417969 L 257 21.417969 Z M 257 24.984375 "/>
</g>
</svg>
