<svg xmlns="http://www.w3.org/2000/svg" viewBox="0 13.960000038146973 200.89999389648438 35.5" data-asc="0.9794921875" width="200.89999389648438" height="35.5"><defs/><g fill="#000000"><g transform="translate(0, 0)"><path d="M21.56 48.97L21.56 24.98L21.34 26.46L13.21 48.97L11.55 48.97L3.34 26.46L3.15 24.98L3.15 48.97L0 48.97L0 13.96L1.64 13.96L12.26 42.68L12.35 43.97L12.45 42.68L23.05 13.96L24.71 13.96L24.71 48.97L21.56 48.97ZM46.90 48.97L45.24 46.44Q44.21 47.83 42.68 48.65Q41.14 49.46 39.31 49.46L38.55 49.46Q37.04 49.46 35.69 48.89Q34.35 48.32 33.35 47.31Q32.35 46.31 31.77 44.97Q31.20 43.63 31.20 42.11L31.20 23.97L34.20 23.97L34.20 42.29Q34.20 43.19 34.55 43.98Q34.89 44.78 35.47 45.36Q36.06 45.95 36.85 46.29Q37.65 46.63 38.55 46.63L40.55 46.63Q41.46 46.63 42.25 46.29Q43.04 45.95 43.63 45.36Q44.21 44.78 44.56 43.98Q44.90 43.19 44.90 42.29L44.90 23.97L47.90 23.97L47.90 48.97L46.90 48.97ZM61.25 26.83Q60.35 26.83 59.56 27.17Q58.76 27.51 58.18 28.10Q57.59 28.69 57.25 29.48Q56.91 30.27 56.91 31.18L56.91 48.97L53.91 48.97L53.91 23.97L54.91 23.97L56.54 26.51Q57.57 25.12 59.12 24.30Q60.67 23.49 62.50 23.49L64.26 23.49L64.26 26.83L61.25 26.83ZM83.96 48.97L82.30 46.44Q81.27 47.83 79.74 48.65Q78.20 49.46 76.37 49.46L75.61 49.46Q74.10 49.46 72.75 48.89Q71.41 48.32 70.41 47.31Q69.41 46.31 68.84 44.97Q68.26 43.63 68.26 42.11L68.26 30.83Q68.26 29.32 68.84 27.98Q69.41 26.64 70.41 25.63Q71.41 24.63 72.75 24.06Q74.10 23.49 75.61 23.49L76.37 23.49Q78.05 23.49 79.49 24.17Q80.93 24.85 81.96 26.07L81.96 13.96L84.96 13.96L84.96 48.97L83.96 48.97M81.96 30.66Q81.96 29.76 81.62 28.97Q81.27 28.17 80.69 27.59Q80.10 27.00 79.31 26.66Q78.52 26.32 77.61 26.32L75.61 26.32Q74.71 26.32 73.91 26.66Q73.12 27.00 72.53 27.59Q71.95 28.17 71.61 28.97Q71.26 29.76 71.26 30.66L71.26 42.29Q71.26 43.19 71.61 43.98Q71.95 44.78 72.53 45.36Q73.12 45.95 73.91 46.29Q74.71 46.63 75.61 46.63L77.61 46.63Q78.52 46.63 79.31 46.29Q80.10 45.95 80.69 45.36Q81.27 44.78 81.62 43.98Q81.96 43.19 81.96 42.29L81.96 30.66ZM106.67 48.97L105.00 46.48Q103.98 47.83 102.44 48.65Q100.90 49.46 99.07 49.46L98.32 49.46Q96.80 49.46 95.46 48.89Q94.12 48.32 93.12 47.31Q92.11 46.31 91.54 44.97Q90.97 43.63 90.97 42.11L90.97 41.87Q90.97 40.36 91.54 39.01Q92.11 37.67 93.12 36.67Q94.12 35.67 95.46 35.10Q96.80 34.52 98.32 34.52L104.66 34.52L104.66 30.66Q104.66 29.76 104.32 28.97Q103.98 28.17 103.39 27.59Q102.81 27.00 102.01 26.66Q101.22 26.32 100.32 26.32L98.56 26.32Q97.66 26.32 96.86 26.66Q96.07 27.00 95.48 27.59Q94.90 28.17 94.56 28.97Q94.21 29.76 94.21 30.66L94.21 31.57L91.21 31.08L91.21 30.83Q91.21 29.32 91.78 27.98Q92.36 26.64 93.36 25.63Q94.36 24.63 95.70 24.06Q97.05 23.49 98.56 23.49L100.32 23.49Q101.83 23.49 103.17 24.06Q104.52 24.63 105.52 25.63Q106.52 26.64 107.09 27.98Q107.67 29.32 107.67 30.83L107.67 48.97L106.67 48.97M104.66 36.87L98.32 36.87Q97.41 36.87 96.62 37.21Q95.83 37.55 95.24 38.15Q94.65 38.75 94.31 39.54Q93.97 40.33 93.97 41.24L93.97 42.29Q93.97 43.19 94.31 43.98Q94.65 44.78 95.24 45.36Q95.83 45.95 96.62 46.29Q97.41 46.63 98.32 46.63L100.32 46.63Q101.22 46.63 102.01 46.29Q102.81 45.95 103.39 45.36Q103.98 44.78 104.32 43.98Q104.66 43.19 104.66 42.29L104.66 36.87ZM143.26 48.97L130.08 31.47L143.26 13.96L147.17 13.96L133.72 31.47L147.17 48.97L143.26 48.97M126.17 48.97L126.17 13.96L129.32 13.96L129.32 48.97L126.17 48.97ZM151.93 17.97L151.93 13.96L155.42 13.96L155.42 17.97L151.93 17.97M152.17 48.97L152.17 23.97L155.18 23.97L155.18 48.97L152.17 48.97ZM163.18 48.97L163.18 13.96L166.19 13.96L166.19 48.97L163.18 48.97ZM174.19 48.97L174.19 13.96L177.20 13.96L177.20 48.97L174.19 48.97ZM199.90 48.97L198.24 46.48Q197.22 47.83 195.68 48.65Q194.14 49.46 192.31 49.46L191.55 49.46Q190.04 49.46 188.70 48.89Q187.35 48.32 186.35 47.31Q185.35 46.31 184.78 44.97Q184.20 43.63 184.20 42.11L184.20 41.87Q184.20 40.36 184.78 39.01Q185.35 37.67 186.35 36.67Q187.35 35.67 188.70 35.10Q190.04 34.52 191.55 34.52L197.90 34.52L197.90 30.66Q197.90 29.76 197.56 28.97Q197.22 28.17 196.63 27.59Q196.04 27.00 195.25 26.66Q194.46 26.32 193.55 26.32L191.80 26.32Q190.89 26.32 190.10 26.66Q189.31 27.00 188.72 27.59Q188.13 28.17 187.79 28.97Q187.45 29.76 187.45 30.66L187.45 31.57L184.45 31.08L184.45 30.83Q184.45 29.32 185.02 27.98Q185.60 26.64 186.60 25.63Q187.60 24.63 188.94 24.06Q190.28 23.49 191.80 23.49L193.55 23.49Q195.07 23.49 196.41 24.06Q197.75 24.63 198.75 25.63Q199.76 26.64 200.33 27.98Q200.90 29.32 200.90 30.83L200.90 48.97L199.90 48.97M197.90 36.87L191.55 36.87Q190.65 36.87 189.86 37.21Q189.06 37.55 188.48 38.15Q187.89 38.75 187.55 39.54Q187.21 40.33 187.21 41.24L187.21 42.29Q187.21 43.19 187.55 43.98Q187.89 44.78 188.48 45.36Q189.06 45.95 189.86 46.29Q190.65 46.63 191.55 46.63L193.55 46.63Q194.46 46.63 195.25 46.29Q196.04 45.95 196.63 45.36Q197.22 44.78 197.56 43.98Q197.90 43.19 197.90 42.29L197.90 36.87Z"/></g></g></svg>